Coordinates
version=1
nRows=14
nColumns=24
inDegrees=yes

Units are S.I. units (second, meters, Newtons, ...)
Angles are in degrees.

endheader
time	pelvis_tilt	pelvis_list	pelvis_rotation	pelvis_tx	pelvis_ty	pelvis_tz	hip_flexion_r	hip_adduction_r	hip_rotation_r	knee_angle_r	ankle_angle_r	subtalar_angle_r	mtp_angle_r	hip_flexion_l	hip_adduction_l	hip_rotation_l	knee_angle_l	ankle_angle_l	subtalar_angle_l	mtp_angle_l	lumbar_extension	lumbar_bending	lumbar_rotation
      0.91916667	     -9.19121502	      1.56845283	     -3.39720348	     -0.21337891	      1.02366144	      0.28440926	      2.59650807	     -0.36247460	      0.08498839	    -22.96832043	     26.38110003	      1.93736332	      2.85973992	     36.70726326	     -1.75170551	     -1.74520489	    -10.50200140	      7.43253036	      5.56412660	      5.01425388	     -6.01902369	      0.38543654	      5.49185025
      0.92333333	     -9.18869025	      1.56351834	     -3.52179931	     -0.20682786	      1.02237828	      0.28416547	      2.40677567	     -0.43992464	      0.05878341	    -23.40485006	     26.46456812	      2.20204117	      2.90319257	     36.69471392	     -1.77011217	     -1.70257693	    -10.44104476	      7.38452196	      5.52143777	      4.97867500	     -5.97898620	      0.34524105	      5.50902548
      0.92750000	     -9.18352430	      1.57166502	     -3.63664391	     -0.20023206	      1.02114956	      0.28389945	      2.23166408	     -0.53860588	      0.01192141	    -23.88183476	     26.52672216	      2.50493640	      2.98344571	     36.67328545	     -1.76413620	     -1.64006626	    -10.45582310	      7.31755407	      5.48649188	      4.93779414	     -5.92695731	      0.27954241	      5.53286538
      0.93166667	     -9.16434566	      1.59102435	     -3.76668934	     -0.19363763	      1.02000036	      0.28365916	      2.06730802	     -0.65108893	     -0.00201443	    -24.40408409	     26.54214925	      2.78426160	      3.08059401	     36.64299827	     -1.75348229	     -1.61934455	    -10.57247322	      7.22088698	      5.45087519	      4.90736483	     -5.89587476	      0.19779592	      5.54149127
      0.93583333	     -9.13300807	      1.62173923	     -3.89007165	     -0.18702742	      1.01891924	      0.28340836	      1.91514075	     -0.78158312	     -0.02937552	    -24.97863589	     26.51703668	      3.08488008	      3.20035129	     36.60785237	     -1.72457589	     -1.60789282	    -10.78774393	      7.10734609	      5.42059576	      4.88530983	     -5.87319976	      0.09969903	      5.54697288
      0.94000000	     -9.10606461	      1.66632903	     -4.01038220	     -0.18040901	      1.01789821	      0.28312159	      1.79761907	     -0.93516490	     -0.06379007	    -25.60396315	     26.41263425	      3.33309072	      5.53284483	     36.56668272	     -1.66798052	     -1.51641260	    -11.05785079	      6.95208623	      5.23471333	      4.68158512	     -5.84261522	     -0.01623323	      5.58182646
      0.94416667	     -9.08052573	      1.70723094	     -4.12773560	     -0.17377046	      1.01693166	      0.28285620	      1.70533473	     -1.08433476	     -0.08951099	    -26.28006619	     26.26858205	      3.63880002	      5.58992623	     36.55854015	     -1.62519535	     -1.55523804	    -11.46315830	      6.79425079	      5.30826595	      4.68627926	     -5.80124484	     -0.12947329	      5.55140077
      0.94833333	     -9.04017126	      1.75925327	     -4.24401967	     -0.16714826	      1.01604474	      0.28257078	      1.63551206	     -1.25380893	     -0.12643589	    -27.02728169	     26.10243596	      3.94741981	      5.69130752	     36.54067046	     -1.56335889	     -1.55843836	    -11.94649496	      6.62858569	      5.29734687	      4.69808920	     -5.78164492	     -0.26213109	      5.54224342
      0.95250000	     -8.99369498	      1.81858219	     -4.35217774	     -0.16052905	      1.01523072	      0.28226666	      1.59298786	     -1.43573290	     -0.16658005	    -27.83812490	     25.87505353	      4.26121518	      5.83594152	     36.52383835	     -1.48628202	     -1.54813698	    -12.50118901	      6.43963085	      5.25470415	      4.71633923	     -5.76706440	     -0.40656309	      5.52755755
      0.95666667	     -8.95761721	      1.88490612	     -4.45370760	     -0.15392609	      1.01445482	      0.28191376	      1.60767954	     -1.63725840	     -0.24039156	    -28.73485960	     25.62759368	      4.60368157	      6.10396090	     36.53072478	     -1.39536718	     -1.52528008	    -13.12959601	      6.23437787	      5.18862903	      4.75032153	     -5.73874026	     -0.55204604	      5.51758245
      0.96083333	     -8.88186996	      1.95002343	     -4.54394942	     -0.14732635	      1.01383786	      0.28155616	      1.59982358	     -1.83793434	     -0.28989226	    -29.65146725	     25.16149659	      4.80618907	     10.11789093	     36.49448009	     -1.29112128	     -1.45129970	    -13.79848358	      5.97819863	      5.00585537	      5.26523153	     -5.76458866	     -0.72361144	      5.50987985
      0.96500000	     -8.84981682	      1.99846764	     -4.63949788	     -0.14075208	      1.01318675	      0.28119697	      1.68690616	     -2.01921600	     -0.32806575	    -30.66304685	     24.71106251	      5.08798640	     10.17254768	     36.54053612	     -1.21775133	     -1.44333031	    -14.58465804	      5.83080720	      5.00017674	      5.26867708	     -5.73062198	     -0.85117584	      5.45174416
      0.96916667	     -8.79825673	      2.06219027	     -4.71349880	     -0.13420272	      1.01261485	      0.28077582	      1.80025228	     -2.23149389	     -0.41483453	    -31.76525353	     24.26621364	      5.40702935	     10.33818165	     36.57912472	     -1.11305814	     -1.42235672	    -15.42088596	      5.65693089	      4.93294951	      5.27696333	     -5.72705540	     -0.99886609	      5.40917320
      0.97333333	     -8.75276608	      2.12871751	     -4.78682492	     -0.12766158	      1.01210423	      0.28034241	      1.96233042	     -2.45114601	     -0.49779035	    -32.93550924	     23.71318857	      5.70838268	     10.60305588	     36.62357798	     -1.00373766	     -1.38090544	    -16.28277389	      5.49454782	      4.83535496	      5.28798969	     -5.71158504	     -1.15321541	      5.36159723
